<?xml version="1.0" standalone="no"?>
<!DOCTYPE svg PUBLIC "-//W3C//DTD SVG 20010904//EN"
 "http://www.w3.org/TR/2001/REC-SVG-20010904/DTD/svg10.dtd">
<svg version="1.0" xmlns="http://www.w3.org/2000/svg"
 width="292.000000pt" height="292.000000pt" viewBox="0 0 292.000000 292.000000"
 preserveAspectRatio="xMidYMid meet">
<metadata>
Created by potrace 1.14, written by Peter Selinger 2001-2017
</metadata>
<g transform="translate(0.000000,292.000000) scale(0.100000,-0.100000)"
fill="#000000" stroke="none">
<path d="M125 2899 c-40 -11 -91 -65 -102 -109 -5 -20 -9 -610 -8 -1346 l0
-1311 27 -40 c14 -22 43 -48 65 -58 36 -17 102 -18 1353 -18 1251 0 1317 1
1353 18 22 10 51 36 65 58 l27 41 1 1305 c0 718 -4 1324 -8 1346 -11 47 -40
84 -86 106 -30 15 -163 16 -1345 16 -722 0 -1326 -4 -1342 -8z m845 -76 c1
-23 1 -153 1 -288 0 -135 0 -319 -1 -408 l0 -164 -452 2 c-249 1 -456 2 -459
3 -3 1 -5 185 -5 410 1 374 3 409 19 433 37 55 43 56 487 56 l410 0 0 -44z
m1837 29 c13 -7 31 -29 41 -50 18 -34 19 -67 18 -437 l-1 -400 -449 0 -449 0
1 425 c0 234 1 437 1 451 l1 26 408 -1 c311 -1 412 -4 429 -14z m-1841 -945
c10 -10 9 -887 -1 -890 -9 -3 -842 -1 -891 2 -20 1 -21 3 -20 444 0 350 2 443
12 447 18 7 893 4 900 -3z m937 4 c16 -1 17 -29 17 -449 l0 -447 -444 0 c-244
0 -448 4 -453 8 -4 5 -8 205 -8 445 0 337 2 438 12 442 9 4 793 5 876 1z m948
0 c14 -1 15 -48 15 -448 l-1 -448 -447 0 c-393 0 -448 2 -449 15 -1 21 -1 796
0 845 l1 40 432 -2 c238 -1 440 -2 449 -2z m-1881 -996 c3 -376 1 -848 -4
-853 -4 -3 -191 -5 -416 -5 -448 1 -438 0 -477 60 -16 25 -18 63 -19 433 -1
223 0 407 1 410 2 3 208 5 459 5 l456 0 0 -50z m945 -404 l0 -454 -425 1
c-234 0 -436 1 -450 1 l-25 1 1 453 c1 248 2 452 3 452 0 0 202 0 449 0 l447
0 0 -454z"/>
</g>
</svg>
